<svg width="512" height="512" viewBox="0 0 512 512" fill="none" xmlns="http://www.w3.org/2000/svg">
<path d="M512 0H0V512H512V0Z" fill="white"/>
<path d="M380.918 181V211.25C380.918 231 368.376 243.5 348.56 243.5H305.668V156.13C305.668 142.25 317.081 130.88 331.002 131C344.673 131.13 357.214 136.63 366.244 145.63C375.274 154.75 380.918 167.25 380.918 181Z" fill="#DF1860"/>
<path opacity="0.4" d="M130.082 193.5V368.5C130.082 378.88 141.871 384.75 150.149 378.5L171.595 362.5C176.612 358.75 183.635 359.25 188.15 363.75L208.969 384.63C213.86 389.5 221.887 389.5 226.778 384.63L247.848 363.63C252.238 359.25 259.261 358.75 264.152 362.5L285.599 378.5C293.876 384.63 305.665 378.75 305.665 368.5V156C305.665 142.25 316.953 131 330.749 131H192.79H180.249C142.624 131 130.082 153.38 130.082 181V193.5Z" fill="#DF1860"/>
<path d="M255.5 259.25H217.875C212.733 259.25 208.469 263.5 208.469 268.62C208.469 273.75 212.733 278 217.875 278H255.5C260.642 278 264.906 273.75 264.906 268.62C264.906 263.5 260.642 259.25 255.5 259.25Z" fill="#DF1860"/>
<path d="M217.875 228H255.5C260.642 228 264.906 223.75 264.906 218.62C264.906 213.5 260.642 209.25 255.5 209.25H217.875C212.733 209.25 208.469 213.5 208.469 218.62C208.469 223.75 212.733 228 217.875 228Z" fill="#DF1860"/>
<path d="M179.882 206.12C172.858 206.12 167.34 211.75 167.34 218.62C167.34 225.5 172.984 231.12 179.882 231.12C186.779 231.12 192.423 225.5 192.423 218.62C192.423 211.75 186.779 206.12 179.882 206.12Z" fill="#DF1860"/>
<path d="M179.882 256.12C172.858 256.12 167.34 261.75 167.34 268.62C167.34 275.5 172.984 281.12 179.882 281.12C186.779 281.12 192.423 275.5 192.423 268.62C192.423 261.75 186.779 256.12 179.882 256.12Z" fill="#DF1860"/>
</svg>
