<svg width="24" height="28" viewBox="0 0 24 28" fill="none" xmlns="http://www.w3.org/2000/svg">
<path d="M22.1475 17.4378C22.4181 17.7224 22.6327 18.0602 22.7789 18.432C22.9252 18.8038 23.0003 19.2022 23 19.6044C23 20.4166 22.6929 21.1955 22.1462 21.7698C21.5995 22.344 20.8581 22.6667 20.085 22.6667H3.915C3.14189 22.6667 2.40045 22.344 1.85378 21.7698C1.30712 21.1955 1 20.4166 1 19.6044C0.999664 19.2022 1.07478 18.8038 1.22105 18.432C1.36733 18.0602 1.5819 17.7224 1.8525 17.4378L3.75 15.4444V9.66667C3.75 7.36812 4.61919 5.16372 6.16637 3.53841C7.71354 1.91309 9.81196 1 12 1C14.188 1 16.2865 1.91309 17.8336 3.53841C19.3808 5.16372 20.25 7.36812 20.25 9.66667V15.4444L22.1475 17.4378ZM16.125 22.6667H7.875C7.875 23.8159 8.3096 24.9181 9.08318 25.7308C9.85677 26.5435 10.906 27 12 27C13.094 27 14.1432 26.5435 14.9168 25.7308C15.6904 24.9181 16.125 23.8159 16.125 22.6667Z" stroke="#ED1A3B" stroke-width="2" stroke-linecap="round" stroke-linejoin="round"/>
</svg>
