<svg width="16" height="17" viewBox="0 0 16 17" fill="none" xmlns="http://www.w3.org/2000/svg">
<path d="M1.23779 9.28125H6.89498V15.4688C6.89498 15.7423 6.99432 16.0046 7.17114 16.198C7.34796 16.3914 7.58778 16.5 7.83785 16.5C8.08791 16.5 8.32773 16.3914 8.50455 16.198C8.68138 16.0046 8.78071 15.7423 8.78071 15.4688V9.28125H14.4379C14.688 9.28125 14.9278 9.1726 15.1046 8.9792C15.2814 8.78581 15.3808 8.5235 15.3808 8.25C15.3808 7.9765 15.2814 7.71419 15.1046 7.5208C14.9278 7.3274 14.688 7.21875 14.4379 7.21875H8.78071V1.03125C8.78071 0.757746 8.68138 0.495443 8.50455 0.302046C8.32773 0.108649 8.08791 0 7.83785 0C7.58778 0 7.34796 0.108649 7.17114 0.302046C6.99432 0.495443 6.89498 0.757746 6.89498 1.03125V7.21875H1.23779C0.987724 7.21875 0.747903 7.3274 0.571081 7.5208C0.394259 7.71419 0.294922 7.9765 0.294922 8.25C0.294922 8.5235 0.394259 8.78581 0.571081 8.9792C0.747903 9.1726 0.987724 9.28125 1.23779 9.28125Z" fill="white"/>
</svg>
