<svg width="27" height="28" viewBox="0 0 27 28" fill="none" xmlns="http://www.w3.org/2000/svg">
<path d="M4.61725 3.88889H24.5509C25.6619 3.88889 26.3584 5.08703 25.8073 6.04998L22.0897 12.5444C21.5746 13.4445 20.6158 14 19.5773 14H9.68141M9.68141 14L7.44775 17.5678C6.84544 18.5298 7.53827 19.7778 8.67473 19.7778H24.1504M9.68141 14L3.97018 2.59693C3.47999 1.61822 2.47798 1 1.38188 1H1M9.68141 25.5556C9.68141 26.3533 9.0336 27 8.23451 27C7.43541 27 6.78761 26.3533 6.78761 25.5556C6.78761 24.7578 7.43541 24.1111 8.23451 24.1111C9.0336 24.1111 9.68141 24.7578 9.68141 25.5556ZM24.1504 25.5556C24.1504 26.3533 23.5026 27 22.7035 27C21.9044 27 21.2566 26.3533 21.2566 25.5556C21.2566 24.7578 21.9044 24.1111 22.7035 24.1111C23.5026 24.1111 24.1504 24.7578 24.1504 25.5556Z" stroke="#ED1A3B" stroke-width="2" stroke-linecap="round" stroke-linejoin="round"/>
</svg>
